<?xml version="1.0" encoding="UTF-8" ?>
<!DOCTYPE svg PUBLIC "-//W3C//DTD SVG 1.1//EN" "http://www.w3.org/Graphics/SVG/1.1/DTD/svg11.dtd">
<svg id="weather34 trop 1" width="302pt" height="340pt" viewBox="0 0 302 340" version="1.1" xmlns="http://www.w3.org/2000/svg">
<g id="#e4e3e3ff">
<path fill="#e4e3e3" opacity="1.00" d=" M 92.82 63.66 C 109.57 56.35 129.65 56.76 145.87 65.31 C 154.82 69.87 162.34 76.96 167.80 85.36 C 183.37 75.14 206.05 77.44 218.77 91.22 C 223.71 96.37 226.59 103.18 227.59 110.19 C 241.20 112.13 254.34 119.59 261.71 131.39 C 268.43 141.63 269.87 155.14 265.42 166.56 C 258.60 184.37 239.69 195.59 220.97 195.52 C 174.30 195.59 127.62 195.53 80.95 195.55 C 75.24 195.56 69.48 195.70 63.87 194.45 C 50.62 191.67 38.07 183.46 31.84 171.21 C 27.49 163.17 26.00 153.56 27.74 144.58 C 31.34 128.51 44.99 115.95 60.62 111.68 C 60.82 104.37 61.83 96.92 65.11 90.30 C 70.45 78.28 80.77 68.77 92.82 63.66 M 94.54 94.53 C 82.21 103.06 73.39 116.97 71.96 131.99 C 70.58 147.48 78.20 163.16 90.78 172.21 C 92.45 173.02 91.63 174.83 91.17 176.12 C 86.12 176.28 81.10 177.92 76.07 176.83 C 69.16 176.29 62.50 174.11 56.30 171.10 C 59.15 174.12 61.91 177.27 65.26 179.76 C 74.26 186.78 85.76 190.01 97.06 190.25 C 114.32 190.23 131.38 183.65 144.46 172.46 C 151.70 166.05 157.09 157.60 160.07 148.41 C 163.28 136.48 162.21 122.98 155.53 112.38 C 152.00 106.13 146.46 101.54 141.11 96.94 C 141.92 96.18 142.80 95.53 143.77 94.99 C 154.97 92.53 166.86 94.63 177.00 99.82 C 167.91 87.28 152.14 81.03 136.97 80.80 C 121.85 80.74 106.85 85.82 94.54 94.53 M 178.35 138.41 C 177.66 140.22 178.15 142.94 176.01 143.84 C 172.08 145.70 168.51 148.83 167.15 153.06 C 166.85 155.59 166.80 158.18 167.17 160.71 C 169.23 167.39 176.41 170.91 183.02 171.01 C 198.02 171.00 213.01 170.97 228.01 171.03 C 232.24 170.76 236.80 170.09 240.04 167.08 C 244.81 163.67 246.29 157.06 244.37 151.68 C 242.32 146.74 237.31 143.99 232.41 142.56 C 231.21 139.92 230.30 136.82 227.62 135.27 C 223.73 132.24 218.35 132.42 213.86 133.79 C 212.50 134.55 211.69 132.89 210.81 132.21 C 208.12 129.16 204.28 127.45 200.43 126.43 C 191.51 124.14 181.19 129.60 178.35 138.41 Z" />
<path fill="#e4e3e3" opacity="1.00" d=" M 110.28 118.19 C 115.55 116.58 121.71 116.66 126.49 119.65 C 132.10 122.98 135.78 129.48 135.52 136.03 C 135.42 141.54 132.53 146.84 128.22 150.21 C 119.77 156.87 105.43 154.31 100.67 144.35 C 95.09 135.06 100.12 121.73 110.28 118.19 Z" />
</g>
<g id="#006ca2ff">
<path fill="#006ca2" opacity="1.00" d=" M 94.54 94.53 C 106.85 85.82 121.85 80.74 136.97 80.80 C 152.14 81.03 167.91 87.28 177.00 99.82 C 166.86 94.63 154.97 92.53 143.77 94.99 C 142.80 95.53 141.92 96.18 141.11 96.94 C 146.46 101.54 152.00 106.13 155.53 112.38 C 162.21 122.98 163.28 136.48 160.07 148.41 C 157.09 157.60 151.70 166.05 144.46 172.46 C 131.38 183.65 114.32 190.23 97.06 190.25 C 85.76 190.01 74.26 186.78 65.26 179.76 C 61.91 177.27 59.15 174.12 56.30 171.10 C 62.50 174.11 69.16 176.29 76.07 176.83 C 81.10 177.92 86.12 176.28 91.17 176.12 C 91.63 174.83 92.45 173.02 90.78 172.21 C 78.20 163.16 70.58 147.48 71.96 131.99 C 73.39 116.97 82.21 103.06 94.54 94.53 M 110.28 118.19 C 100.12 121.73 95.09 135.06 100.67 144.35 C 105.43 154.31 119.77 156.87 128.22 150.21 C 132.53 146.84 135.42 141.54 135.52 136.03 C 135.78 129.48 132.10 122.98 126.49 119.65 C 121.71 116.66 115.55 116.58 110.28 118.19 Z" />
</g>
<g id="#aca6a6ff">
<path fill="#aca6a6" opacity="1.00" d=" M 178.35 138.41 C 181.19 129.60 191.51 124.14 200.43 126.43 C 204.28 127.45 208.12 129.16 210.81 132.21 C 211.69 132.89 212.50 134.55 213.86 133.79 C 218.35 132.42 223.73 132.24 227.62 135.27 C 230.30 136.82 231.21 139.92 232.41 142.56 C 237.31 143.99 242.32 146.74 244.37 151.68 C 246.29 157.06 244.81 163.67 240.04 167.08 C 236.80 170.09 232.24 170.76 228.01 171.03 C 213.01 170.97 198.02 171.00 183.02 171.01 C 176.41 170.91 169.23 167.39 167.17 160.71 C 166.80 158.18 166.85 155.59 167.15 153.06 C 168.51 148.83 172.08 145.70 176.01 143.84 C 178.15 142.94 177.66 140.22 178.35 138.41 Z" />
</g>
</svg>
