<?xml version="1.0" encoding="UTF-8" ?>
<!DOCTYPE svg PUBLIC "-//W3C//DTD SVG 1.1//EN" "http://www.w3.org/Graphics/SVG/1.1/DTD/svg11.dtd">
<svg id="weather34 night trop 2" width="302pt" height="340pt" viewBox="0 0 302 340" version="1.1" xmlns="http://www.w3.org/2000/svg">
<g id="#505153ff">
<path fill="#505153" opacity="1.00" d=" M 75.92 74.91 C 88.98 62.23 108.11 56.53 126.04 59.01 C 142.89 61.21 158.78 70.89 167.73 85.45 C 183.34 75.40 206.02 77.47 218.70 91.35 C 223.70 96.44 226.49 103.30 227.50 110.29 C 238.29 111.98 248.65 116.82 256.38 124.62 C 263.93 132.76 268.55 143.89 267.71 155.09 C 267.15 172.10 254.01 186.66 238.51 192.37 C 231.97 194.86 224.95 195.77 217.98 195.73 C 172.33 195.74 126.68 195.72 81.02 195.73 C 75.64 195.71 70.21 195.92 64.90 194.87 C 51.61 192.45 39.20 184.44 32.41 172.64 C 26.82 162.90 25.35 150.69 29.20 140.07 C 32.08 131.91 37.54 124.72 44.53 119.64 C 49.44 116.18 54.97 113.71 60.61 111.70 C 60.50 97.99 66.10 84.47 75.92 74.91 M 85.90 106.90 C 77.41 112.36 70.76 120.90 68.42 130.80 C 66.16 140.10 68.26 150.34 73.98 158.01 C 76.45 161.52 79.99 164.03 83.00 167.04 C 79.46 169.46 74.95 168.82 70.91 168.82 C 65.68 168.74 60.79 166.72 56.08 164.64 C 65.08 176.17 80.93 180.93 95.04 178.00 C 109.67 175.17 124.17 166.70 130.71 152.82 L 130.30 153.77 C 133.45 156.12 136.92 158.52 141.04 158.42 C 149.57 158.54 158.11 158.42 166.65 158.46 C 167.88 160.80 168.92 163.28 170.63 165.33 C 173.75 168.75 178.41 170.48 183.00 170.29 C 198.64 170.33 214.27 170.34 229.91 170.29 C 237.69 170.66 245.61 164.02 245.09 155.93 C 244.60 149.15 238.51 144.33 232.27 142.87 C 231.08 139.93 229.63 136.86 226.76 135.22 C 222.51 132.33 216.97 132.69 212.46 134.75 C 207.49 127.89 198.56 125.24 190.43 126.86 C 186.39 121.23 178.46 120.02 172.41 122.91 C 166.84 115.42 155.40 111.69 147.23 117.16 C 141.66 119.99 138.61 125.86 137.79 131.85 C 136.44 132.54 135.08 133.21 133.72 133.89 C 132.55 124.01 126.31 115.64 118.51 109.82 C 119.33 109.27 120.17 108.75 121.04 108.28 C 129.19 106.29 137.66 108.47 145.15 111.82 C 139.48 104.62 130.96 99.85 121.93 98.49 C 109.40 96.42 96.45 100.13 85.90 106.90 Z" />
<path fill="#505153" opacity="1.00" d=" M 96.35 125.35 C 103.60 122.51 112.34 127.54 114.04 135.01 C 116.41 143.04 109.49 152.31 101.02 151.87 C 93.50 152.52 86.54 145.47 87.18 137.98 C 86.97 132.33 91.09 127.11 96.35 125.35 Z" />
</g>
<g id="#a10101ff">
<path fill="#a10101" opacity="1.00" d=" M 85.90 106.90 C 96.45 100.13 109.40 96.42 121.93 98.49 C 130.96 99.85 139.48 104.62 145.15 111.82 C 137.66 108.47 129.19 106.29 121.04 108.28 C 120.17 108.75 119.33 109.27 118.51 109.82 C 126.31 115.64 132.55 124.01 133.72 133.89 C 134.70 140.34 133.42 146.94 130.71 152.82 C 124.17 166.70 109.67 175.17 95.04 178.00 C 80.93 180.93 65.08 176.17 56.08 164.64 C 60.79 166.72 65.68 168.74 70.91 168.82 C 74.95 168.82 79.46 169.46 83.00 167.04 C 79.99 164.03 76.45 161.52 73.98 158.01 C 68.26 150.34 66.16 140.10 68.42 130.80 C 70.76 120.90 77.41 112.36 85.90 106.90 M 96.35 125.35 C 91.09 127.11 86.97 132.33 87.18 137.98 C 86.54 145.47 93.50 152.52 101.02 151.87 C 109.49 152.31 116.41 143.04 114.04 135.01 C 112.34 127.54 103.60 122.51 96.35 125.35 Z" />
</g>
<g id="#9f9b9bff">
<path fill="#9f9b9b" opacity="1.00" d=" M 147.23 117.16 C 155.40 111.69 166.84 115.42 172.41 122.91 C 178.46 120.02 186.39 121.23 190.43 126.86 C 198.56 125.24 207.49 127.89 212.46 134.75 C 216.97 132.69 222.51 132.33 226.76 135.22 C 229.63 136.86 231.08 139.93 232.27 142.87 C 238.51 144.33 244.60 149.15 245.09 155.93 C 245.61 164.02 237.69 170.66 229.91 170.29 C 214.27 170.34 198.64 170.33 183.00 170.29 C 178.41 170.48 173.75 168.75 170.63 165.33 C 168.92 163.28 167.88 160.80 166.65 158.46 C 158.11 158.42 149.57 158.54 141.04 158.42 C 136.92 158.52 133.45 156.12 130.30 153.77 L 130.71 152.82 C 133.42 146.94 134.70 140.34 133.72 133.89 C 135.08 133.21 136.44 132.54 137.79 131.85 C 138.61 125.86 141.66 119.99 147.23 117.16 Z" />
</g>
</svg>
