<?xml version="1.0" encoding="UTF-8" standalone="no"?>
<!DOCTYPE svg PUBLIC "-//W3C//DTD SVG 1.1//EN" "http://www.w3.org/Graphics/SVG/1.1/DTD/svg11.dtd">
<svg width="100%" height="100%" viewBox="0 0 128 128" version="1.1" xmlns="http://www.w3.org/2000/svg" xmlns:xlink="http://www.w3.org/1999/xlink" xml:space="preserve" style="fill-rule:evenodd;clip-rule:evenodd;">
    <path d="M44.44,28.48C58.66,22.22 75.6,22.55 89.54,29.4C102.43,35.6 112.61,47.13 117.15,60.69C120.97,71.88 120.88,84.29 117.13,95.49C115.86,95.1 114.59,94.71 113.32,94.32C117.16,82.87 116.89,70.05 112.2,58.88C106.86,45.81 95.69,35.29 82.33,30.73C68.09,25.74 51.62,27.67 38.97,35.92C26.32,43.95 17.67,57.95 16.26,72.89C15.47,80.11 16.42,87.44 18.66,94.33C17.38,94.72 16.11,95.1 14.84,95.49C10.78,83.31 11.05,69.7 15.91,57.79C21.11,44.79 31.59,34.03 44.44,28.48Z" style="fill:rgb(255,139,0);fill-rule:nonzero;stroke:rgb(146,146,146);stroke-width:0.09px;"/>
    <path d="M65.19,32.07C66.44,31.7 68.12,32.49 67.94,33.98C68.03,38.3 68.17,42.64 67.83,46.96C66.93,48.71 63.83,48.1 64.06,46.01C63.96,41.7 63.85,37.36 64.15,33.06C64.41,32.81 64.93,32.32 65.19,32.07Z" style="fill:rgb(146,146,146);fill-rule:nonzero;stroke:rgb(146,146,146);stroke-width:0.09px;"/>
    <path d="M91.36,40.48C92.9,39.79 94.68,42.13 93.48,43.47C91.16,46.83 88.8,50.18 86.25,53.37C85.08,55.37 81.68,53.06 83.09,51.28C85.72,47.63 88,43.42 91.36,40.48Z" style="fill:rgb(146,146,146);fill-rule:nonzero;stroke:rgb(146,146,146);stroke-width:0.09px;"/>
    <path d="M38.38,41.25C39.41,39.83 41.55,40.3 42.17,41.85C44.44,44.96 46.83,48 48.88,51.26C50.33,53 46.97,55.35 45.76,53.4C43.08,49.97 40.45,46.47 38.12,42.8C38.18,42.41 38.32,41.64 38.38,41.25Z" style="fill:rgb(146,146,146);fill-rule:nonzero;stroke:rgb(146,146,146);stroke-width:0.09px;"/>
    <g transform="matrix(0.832694,0.551754,-0.556983,0.840586,56.0077,-23.3359)">
        <path d="M66,56.02C67.85,65.83 69.65,75.66 71.54,85.46C75.81,88.6 77.52,94.93 74.37,99.44C70.97,105.16 61.85,105.5 58.03,100.04C54.41,95.56 55.92,88.72 60.45,85.45C62.34,75.65 64.13,65.83 66,56.02M64.23,88.25C60,89.34 58.54,95.33 61.76,98.26C64.7,101.45 70.64,99.97 71.74,95.77C73.32,91.39 68.6,86.67 64.23,88.25Z" style="fill:rgb(42,162,203);fill-rule:nonzero;stroke:rgb(146,146,146);stroke-width:0.09px;"/>
    </g>
    <path d="M22.44,63.15C22.82,62.95 23.57,62.56 23.94,62.37C27.99,63.41 31.94,64.81 35.89,66.16C38.09,66.41 38.07,69.77 35.93,70.14C31.78,69.19 27.78,67.69 23.75,66.34C22.23,65.92 21.64,64.53 22.44,63.15Z" style="fill:rgb(146,146,146);fill-rule:nonzero;stroke:rgb(146,146,146);stroke-width:0.09px;"/>
    <path d="M105.31,63.1C107.19,61.63 111.07,62.75 109.5,65.48C105.78,67.74 101.19,68.5 97.06,69.94C95.03,71 93.34,67.67 95.22,66.55C98.48,65.12 101.96,64.29 105.31,63.1Z" style="fill:rgb(146,146,146);fill-rule:nonzero;stroke:rgb(146,146,146);stroke-width:0.09px;"/>
    <path d="M33.36,86.5C35.22,85.25 38.46,86.19 37.37,88.88C33.64,91.2 29.03,91.91 24.9,93.41C22.82,94.59 20.84,90.96 23.07,89.99C26.4,88.57 29.94,87.68 33.36,86.5Z" style="fill:rgb(146,146,146);fill-rule:nonzero;stroke:rgb(146,146,146);stroke-width:0.09px;"/>
    <path d="M95.19,86.35C99.21,85.62 103.44,88.52 107.5,89.39C110.04,89.46 110.85,93.13 108.05,93.63C104.01,92.59 100.07,91.19 96.12,89.84C94.41,89.72 93.72,87.25 95.19,86.35Z" style="fill:rgb(146,146,146);fill-rule:nonzero;stroke:rgb(146,146,146);stroke-width:0.09px;"/>
</svg>
