<svg xmlns="http://www.w3.org/2000/svg" viewBox="0 0 496.16 496.16">
  <path d="M248.08 0C111.08 0 0 111.06 0 248.08c0 137 111.07 248.08 248.08 248.08 137.01 0 248.08-111.07 248.08-248.08C496.16 111.06 385.09 0 248.08 0z" fill="#48a1af"/>
  <path d="M404.77 55.78A246.7 246.7 0 0 0 297.61 4.96c-.98-.2-2-.35-2.98-.53A249.23 249.23 0 0 0 248.08 0a248.53 248.53 0 0 0-77.47 12.4 247.59 247.59 0 0 0-76.48 41.21 250.65 250.65 0 0 0-30.42 28.51 248.2 248.2 0 0 0-45.95 73.8 69.9 69.9 0 0 0 52.4 35.6 69.82 69.82 0 0 0 54.74-16.67 69.8 69.8 0 0 0 41.79 21.09 69.75 69.75 0 0 0 40.62-7.07 69.83 69.83 0 0 0 47 27.22 70 70 0 0 0 67.45-31.25 69.66 69.66 0 0 0 33.93 14.07A69.9 69.9 0 0 0 415 177.88a70.14 70.14 0 0 0 56.5-37.7 248.87 248.87 0 0 0-66.74-84.4z" fill="#e4f2f4" opacity=".5"/>
  <g fill="#7cb7c1">
    <path d="M144.9 228.76s-25.84 1.65-38.4 14.22a17.1 17.1 0 1 0 24.18 24.18c13.98-13.99-2.37-21.8 14.22-38.4zM63.24 228.76s-25.84 1.65-38.4 14.22a17.1 17.1 0 0 0 24.18 24.18c13.98-13.99-2.37-21.8 14.22-38.4zM308.77 228.76s-25.84 1.65-38.41 14.22a17.1 17.1 0 1 0 24.18 24.18c14-13.99-2.37-21.8 14.23-38.4zM227.1 228.76s-25.84 1.65-38.4 14.22a17.1 17.1 0 0 0 24.18 24.18c13.99-13.99-2.37-21.8 14.23-38.4zM474.6 228.76s-25.85 1.65-38.42 14.22a17.1 17.1 0 1 0 24.18 24.18c14-13.99-2.36-21.8 14.23-38.4zM392.93 228.76s-25.84 1.65-38.41 14.22a17.1 17.1 0 1 0 24.18 24.18c14-13.99-2.36-21.8 14.23-38.4zM144.9 358.02s-25.84 1.66-38.4 14.22a17.1 17.1 0 0 0 24.18 24.19c13.98-14-2.37-21.81 14.22-38.41zM308.77 358.02s-25.84 1.66-38.41 14.22a17.1 17.1 0 0 0 24.18 24.19c14-14-2.37-21.81 14.23-38.41zM227.1 358.02s-25.84 1.66-38.4 14.22a17.1 17.1 0 0 0 24.18 24.19c13.99-14-2.37-21.81 14.23-38.41zM392.93 358.02s-25.84 1.66-38.41 14.22a17.1 17.1 0 0 0 24.18 24.19c14-14-2.36-21.81 14.23-38.41zM95.29 290.13s-25.85 1.65-38.41 14.22a17.1 17.1 0 1 0 24.18 24.18c14-13.99-2.37-21.81 14.23-38.4zM259.15 290.13s-25.85 1.65-38.4 14.22a17.1 17.1 0 0 0 24.17 24.18c13.99-13.99-2.37-21.81 14.23-38.4zM177.49 290.13s-25.85 1.65-38.4 14.22a17.1 17.1 0 1 0 24.17 24.18c13.99-13.99-2.37-21.81 14.23-38.4zM424.97 290.13s-25.84 1.65-38.4 14.22a17.1 17.1 0 1 0 24.18 24.18c13.99-13.99-2.37-21.81 14.22-38.4zM343.31 290.13s-25.84 1.65-38.4 14.22a17.1 17.1 0 1 0 24.18 24.18c13.98-13.99-2.37-21.81 14.22-38.4zM259.15 418.08s-25.85 1.66-38.4 14.22a17.1 17.1 0 0 0 24.17 24.19c13.99-13.99-2.37-21.81 14.23-38.4zM177.49 418.08s-25.85 1.66-38.4 14.22a17.1 17.1 0 1 0 24.17 24.19c13.99-13.99-2.37-21.81 14.23-38.4zM343.31 418.08s-25.84 1.66-38.4 14.22a17.1 17.1 0 0 0 24.18 24.19c13.98-13.99-2.37-21.81 14.22-38.4z"/>
  </g>
  <path d="M372.95 33.75a246.75 246.75 0 0 0-17.36-9.3A246.29 246.29 0 0 0 311.48 8.2l-2.37-.62A247.56 247.56 0 0 0 248.08 0c-11.8 0-23.4.88-34.76 2.48a246.37 246.37 0 0 0-62.4 17.28c-.94.4-1.88.86-2.83 1.28a249.2 249.2 0 0 0-96 75.04c-.7.9-1.44 1.8-2.14 2.71.91.37 1.86.66 2.79 1 5.9 31.16 31.98 55.8 65.13 58.39a71.7 71.7 0 0 0 41.36-9.3 71.8 71.8 0 0 0 49.63 25.6 72 72 0 0 0 67.7-35.49 71.6 71.6 0 0 0 35.54 12.75c23.62 1.84 45.4-8 59.86-24.58a72.1 72.1 0 0 0 58.45-47.25 249.17 249.17 0 0 0-57.46-46.16z" fill="#e4f2f4" opacity=".5"/>
  <path d="M248.08 0C173.4 0 106.48 33.04 61 85.24c4.1-.38 8.12-1.07 12.02-2.07a74 74 0 0 0 65.03 38.63c18.73 0 35.8-7 48.83-18.48a73.66 73.66 0 0 0 48.83 18.48c32.12 0 59.38-20.48 69.63-49.08a73.6 73.6 0 0 0 43.78 14.44 73.83 73.83 0 0 0 58.6-28.9A247.02 247.02 0 0 0 248.08 0z" fill="#e4f2f4"/>
</svg>
