<?xml version="1.0" encoding="UTF-8" standalone="no"?>
<svg
   xmlns:dc="http://purl.org/dc/elements/1.1/"
   xmlns:cc="http://creativecommons.org/ns#"
   xmlns:rdf="http://www.w3.org/1999/02/22-rdf-syntax-ns#"
   xmlns:svg="http://www.w3.org/2000/svg"
   xmlns="http://www.w3.org/2000/svg"
   xmlns:sodipodi="http://sodipodi.sourceforge.net/DTD/sodipodi-0.dtd"
   xmlns:inkscape="http://www.inkscape.org/namespaces/inkscape"
   width="512pt"
   height="512pt"
   viewBox="0 0 512 512"
   version="1.1"
   id="svg4224"
   inkscape:version="0.91 r13725"
   sodipodi:docname="ambientweather.svg">
  <metadata
     id="metadata4272">
    <rdf:RDF>
      <cc:Work
         rdf:about="">
        <dc:format>image/svg+xml</dc:format>
        <dc:type
           rdf:resource="http://purl.org/dc/dcmitype/StillImage" />
        <dc:title></dc:title>
      </cc:Work>
    </rdf:RDF>
  </metadata>
  <defs
     id="defs4270" />
  <sodipodi:namedview
     pagecolor="#ffffff"
     bordercolor="#666666"
     borderopacity="1"
     objecttolerance="10"
     gridtolerance="10"
     guidetolerance="10"
     inkscape:pageopacity="0"
     inkscape:pageshadow="2"
     inkscape:window-width="1872"
     inkscape:window-height="1028"
     id="namedview4268"
     showgrid="false"
     inkscape:zoom="1.3296875"
     inkscape:cx="320"
     inkscape:cy="320"
     inkscape:window-x="48"
     inkscape:window-y="24"
     inkscape:window-maximized="1"
     inkscape:current-layer="layer1" />
  <g
     inkscape:groupmode="layer"
     id="layer1"
     inkscape:label="bottom">
    <ellipse
       style="fill:#ffffff;fill-opacity:1;fill-rule:evenodd;stroke:#000000;stroke-width:0.76421505px;stroke-linecap:butt;stroke-linejoin:miter;stroke-opacity:1"
       id="path4274"
       cx="251.31677"
       cy="255.21973"
       rx="212.39862"
       ry="218.11424" />
  </g>
  <g
     inkscape:groupmode="layer"
     id="layer2"
     inkscape:label="Top"
     style="display:inline">
    <path
       style="opacity:1;fill:#080855;stroke:#080855;stroke-width:0.09375"
       d="m 115.51,86.55 c 40.48,-34.73 94.2,-53.7 147.54,-51.52 38.35,0.92 76.28,12.74 108.65,33.26 42.08,26.48 74.57,67.71 90.59,114.77 10.8,31.34 14.12,65.11 10.37,98 -4.23,37.17 -18.25,73.14 -40.18,103.44 -22.56,31.34 -53.52,56.6 -88.85,72.21 -39.44,17.66 -84.24,22.63 -126.69,14.96 -48.69,-8.74 -93.92,-35 -125.95,-72.66 -30.47,-35.26 -49.18,-80.48 -52.51,-126.97 -0.16,-3.64 -0.27,-7.3 -0.92,-10.9 5.62,5.46 11.13,11.05 16.65,16.61 1.01,1.01 2.17,1.84 3.38,2.59 1.28,1.09 2.54,2.22 3.81,3.33 3.16,2.06 6.02,4.52 9.1,6.68 1,0.66 2,1.34 3.01,2 1.01,0.65 2.03,1.31 3.06,1.93 1.7,0.92 3.32,1.97 4.94,3.03 1.56,1.18 3.27,2.14 5.05,2.97 3.14,1.4 5.91,3.49 8.98,5.03 2.33,1.09 4.64,2.24 6.89,3.51 1.35,0.51 2.71,1.02 4.09,1.48 0.5,0.24 1.52,0.73 2.03,0.98 0.51,0.24 1.53,0.72 2.04,0.96 0.97,0.54 1.93,1.09 2.9,1.65 0.51,0.05 1.54,0.15 2.05,0.2 0.97,0.6 1.95,1.21 2.92,1.83 0.52,0.04 1.55,0.12 2.07,0.16 0.97,0.6 1.95,1.21 2.92,1.81 0.5,0.08 1.5,0.22 2,0.29 1.34,0.54 2.7,1.02 4.04,1.55 1.02,0.29 2.04,0.6 3.06,0.91 1.01,0.38 2.01,0.76 3.02,1.15 0.46,0.1 1.39,0.32 1.86,0.43 1,0.37 2.01,0.75 3.02,1.13 1.01,0.32 2.01,0.63 3.03,0.95 0.98,0.37 1.97,0.73 2.97,1.08 1.32,0.33 2.64,0.63 3.98,0.93 1.71,0.47 3.44,0.91 5.15,1.42 0.46,0.14 1.37,0.42 1.82,0.56 1.33,0.37 2.67,0.73 4,1.09 2.08,0.42 4.17,0.79 6.22,1.34 0.92,0.18 1.84,0.36 2.75,0.55 1.61,0.61 3.32,0.77 5,1.03 1.62,0.56 3.32,0.75 5,1 2.35,0.89 4.97,0.44 7.28,1.5 1.56,0.14 3.14,0.25 4.71,0.4 2.57,1.43 5.73,0.14 8.29,1.64 2.23,0.14 4.47,0.18 6.7,0.32 3.48,2 7.83,-0.34 11.3,1.7 4.56,0.31 9.14,-0.03 13.7,0.28 1.69,1.06 3.71,0.87 5.62,0.9 5.01,-0.07 10.02,-0.04 15.03,-0.04 0,-3.34 0,-6.67 0,-10 -7.29,-0.12 -14.6,0.22 -21.88,-0.13 -0.44,-0.18 -1.32,-0.55 -1.77,-0.73 -4.62,-0.71 -9.63,0.91 -14,-1.01 -3.32,-0.41 -6.9,0.58 -9.99,-0.96 -1.91,-0.14 -3.81,-0.21 -5.71,-0.34 -2.16,-1.17 -4.66,-0.78 -6.99,-1.01 -2.3,-1.14 -4.99,-0.53 -7.3,-1.59 -2.02,-0.22 -4.12,-0.12 -5.99,-1 -1.25,-0.17 -2.5,-0.31 -3.74,-0.46 -2.05,-0.65 -4.19,-0.93 -6.25,-1.51 -0.93,-0.17 -1.86,-0.34 -2.78,-0.5 -1.71,-0.54 -3.45,-0.97 -5.18,-1.43 -1.36,-0.32 -2.71,-0.65 -4.04,-1.07 -0.93,-0.17 -1.86,-0.34 -2.79,-0.49 -1.71,-0.55 -3.45,-1 -5.17,-1.52 -0.46,-0.13 -1.37,-0.38 -1.83,-0.51 -1.7,-0.51 -3.42,-0.95 -5.13,-1.41 -1,-0.32 -2,-0.66 -2.99,-1.01 -1,-0.33 -2,-0.66 -3,-0.99 -1,-0.34 -2,-0.68 -3,-1.02 -1.01,-0.31 -2.02,-0.63 -3.02,-0.96 -1.01,-0.38 -2.02,-0.77 -3.03,-1.16 -0.49,-0.08 -1.48,-0.22 -1.97,-0.3 -0.97,-0.6 -1.95,-1.21 -2.92,-1.81 -0.51,-0.04 -1.55,-0.12 -2.07,-0.16 -0.97,-0.62 -1.95,-1.22 -2.92,-1.83 -0.51,-0.05 -1.53,-0.16 -2.04,-0.21 -0.51,-0.28 -1.55,-0.85 -2.07,-1.14 -0.98,-0.54 -1.95,-1.07 -2.92,-1.61 -0.5,-0.07 -1.5,-0.21 -2,-0.28 -1.34,-0.73 -2.7,-1.44 -4.06,-2.13 -1.64,-0.82 -3.26,-1.63 -4.89,-2.45 -2.68,-1.32 -5.34,-2.67 -8.02,-3.97 -2.4,-1.19 -4.63,-2.68 -6.94,-4.04 -2.17,-0.96 -4.17,-2.24 -6.11,-3.58 -1.02,-0.69 -2.04,-1.36 -3.08,-2 -0.45,-0.35 -1.36,-1.04 -1.82,-1.39 -1.4,-0.85 -2.78,-1.74 -4.18,-2.58 -0.46,-0.34 -1.38,-1.03 -1.84,-1.37 -1.74,-1.19 -3.4,-2.51 -5.17,-3.67 -1.27,-1.11 -2.52,-2.24 -3.81,-3.33 -2.69,-1.56 -4.66,-4 -6.96,-6.02 -4.06,-2.48 -7.02,-6.34 -10.3,-9.7 -0.87,-1.57 -2.07,-2.91 -3.31,-4.18 -0.06,-11.11 1.06,-22.17 2.75,-33.14 4.59,4.4 8.88,9.12 13.62,13.37 3.91,2.64 7.32,5.96 11.15,8.71 0.48,0.31 1.42,0.94 1.9,1.26 1.72,1.19 3.37,2.49 5.05,3.73 1.02,0.64 2.04,1.29 3.09,1.91 1.69,0.92 3.31,1.97 4.93,3.04 1.57,1.18 3.29,2.14 5.09,2.94 2.58,1.54 5.1,3.18 7.81,4.48 0.51,0.25 1.54,0.75 2.05,1 1.03,0.5 2.05,1.01 3.08,1.51 0.51,0.26 1.52,0.77 2.03,1.03 2.33,1.15 4.66,2.31 6.94,3.58 0.5,0.07 1.5,0.2 2,0.27 0.97,0.54 1.94,1.07 2.92,1.61 0.52,0.29 1.56,0.86 2.08,1.14 0.5,0.05 1.52,0.16 2.03,0.21 0.97,0.61 1.95,1.21 2.92,1.82 0.52,0.05 1.54,0.15 2.06,0.19 0.96,0.56 1.92,1.12 2.9,1.68 1.04,0.27 2.09,0.55 3.14,0.85 1,0.38 2.01,0.76 3.01,1.16 0.46,0.11 1.39,0.33 1.86,0.44 1.01,0.36 2.04,0.72 3.07,1.07 1.34,0.5 2.7,0.97 4.04,1.49 0.47,0.1 1.42,0.31 1.89,0.42 1,0.39 2,0.77 3.01,1.14 1.72,0.44 3.45,0.87 5.15,1.39 0.46,0.13 1.37,0.38 1.83,0.51 1.72,0.53 3.46,0.97 5.17,1.52 0.93,0.15 1.86,0.32 2.8,0.48 1.32,0.42 2.67,0.77 4.01,1.11 1.33,0.34 2.67,0.66 4.01,0.99 2.07,0.46 4.15,0.83 6.21,1.35 1.69,0.24 3.42,0.41 5.01,1.07 1.24,0.15 2.49,0.29 3.73,0.46 2.31,1.08 5,0.44 7.29,1.59 2.34,0.23 4.84,-0.15 7,1.01 1.9,0.13 3.8,0.2 5.71,0.34 3.16,1.86 7.13,-0.22 10.29,1.69 3.23,0.19 6.47,0.08 9.7,0.28 2.01,1.22 4.4,0.82 6.63,0.89 5.45,0 10.92,-0.18 16.37,0.11 2.32,1.37 5.1,0.76 7.65,0.88 0,-3.34 0,-6.68 0,-10.02 -5.18,-0.48 -10.72,1.04 -15.65,-0.86 -5.62,-0.79 -11.62,0.99 -17,-1 -3.23,-0.2 -6.47,-0.09 -9.7,-0.28 -2.85,-1.75 -6.44,0.01 -9.3,-1.7 -2.23,-0.14 -4.47,-0.18 -6.7,-0.32 -1.85,-1.01 -3.99,-0.85 -6.01,-1.07 -2.31,-1.01 -4.92,-0.58 -7.27,-1.46 -1.68,-0.26 -3.38,-0.45 -5,-1.01 -1.68,-0.26 -3.39,-0.43 -4.99,-1.02 -0.92,-0.19 -1.84,-0.38 -2.76,-0.55 -2.05,-0.57 -4.14,-0.92 -6.21,-1.37 -1.34,-0.33 -2.68,-0.66 -4,-1.01 -1.34,-0.34 -2.68,-0.67 -4.01,-1.06 -0.45,-0.14 -1.36,-0.41 -1.82,-0.55 -1.71,-0.52 -3.45,-0.97 -5.16,-1.48 -0.46,-0.13 -1.38,-0.39 -1.83,-0.53 -1.7,-0.51 -3.43,-0.94 -5.14,-1.38 -1.02,-0.38 -2.02,-0.76 -3.02,-1.15 -0.48,-0.09 -1.43,-0.28 -1.9,-0.38 -1.35,-0.57 -2.72,-1.08 -4.06,-1.65 -0.5,-0.08 -1.49,-0.23 -1.99,-0.3 -0.97,-0.55 -1.94,-1.08 -2.91,-1.61 -1.06,-0.33 -2.11,-0.68 -3.16,-1.04 -0.49,-0.09 -1.47,-0.25 -1.96,-0.34 -0.97,-0.6 -1.95,-1.2 -2.92,-1.79 -0.51,-0.05 -1.55,-0.13 -2.07,-0.18 -0.95,-0.59 -1.91,-1.19 -2.86,-1.78 -1.38,-0.49 -2.76,-0.97 -4.15,-1.4 -0.96,-0.49 -1.92,-0.98 -2.87,-1.47 -1.72,-0.83 -3.43,-1.69 -5.14,-2.53 -1.33,-0.67 -2.65,-1.35 -3.99,-2 -0.5,-0.25 -1.52,-0.76 -2.02,-1.01 -1.63,-0.82 -3.25,-1.63 -4.89,-2.42 -2.41,-1.2 -4.66,-2.68 -6.97,-4.05 -1.39,-0.82 -2.75,-1.69 -4.14,-2.48 -1.33,-0.77 -2.64,-1.58 -3.93,-2.41 -1,-0.67 -1.99,-1.36 -2.98,-2.03 -1.02,-0.65 -2.02,-1.32 -3.02,-1.97 -3.09,-2.17 -5.94,-4.66 -9.12,-6.68 -1.92,-1.76 -3.7,-3.72 -5.99,-5.01 -4.08,-3.84 -8.25,-7.66 -11.84,-11.96 1.41,-9.66 5.07,-18.81 7.3,-28.27 3.18,2 5.81,4.69 8.53,7.25 4.54,2.99 8.68,6.53 13.12,9.66 1,0.67 2,1.34 3.01,2 1.01,0.65 2.03,1.31 3.06,1.94 1.7,0.93 3.34,1.96 5,2.96 2.31,1.37 4.56,2.84 6.95,4.07 0.52,0.23 1.55,0.7 2.06,0.93 0.95,0.5 1.89,1 2.84,1.5 1.72,0.83 3.44,1.67 5.16,2.5 0.95,0.5 1.9,1.01 2.85,1.51 1.05,0.49 2.09,0.99 3.14,1.48 0.95,0.49 1.91,0.99 2.87,1.48 0.51,0.29 1.55,0.88 2.06,1.17 0.51,0.05 1.53,0.15 2.04,0.2 0.98,0.61 1.95,1.22 2.92,1.83 0.52,0.04 1.56,0.12 2.08,0.16 0.97,0.61 1.94,1.22 2.92,1.83 0.51,0.05 1.54,0.15 2.05,0.2 0.97,0.55 1.94,1.11 2.91,1.66 1.04,0.28 2.08,0.58 3.12,0.88 1,0.33 1.99,0.68 2.99,1.04 1,0.32 2,0.64 3,0.98 1,0.33 2,0.67 3,1.01 1.01,0.32 2.01,0.64 3.01,0.98 1.01,0.36 2.02,0.73 3.03,1.11 0.46,0.13 1.37,0.39 1.83,0.52 1.33,0.38 2.67,0.71 4.02,1.04 1.72,0.46 3.45,0.89 5.17,1.4 0.45,0.14 1.36,0.42 1.81,0.56 1.33,0.37 2.66,0.73 4,1.09 2.08,0.41 4.17,0.77 6.22,1.34 0.92,0.18 1.84,0.36 2.76,0.55 1.6,0.6 3.31,0.78 4.99,1.03 1.62,0.55 3.32,0.75 5,1 1.62,0.55 3.32,0.75 5,1 2.21,0.92 4.64,0.69 6.98,0.88 1.85,0.99 3.98,0.82 6.01,1.04 2.49,1.21 5.32,0.68 7.99,0.93 3.47,2.02 7.82,-0.33 11.3,1.71 4.29,0.64 8.94,-0.83 13,1 7.78,0.32 15.57,0.05 23.35,0.14 0,-3.34 0,-6.67 0,-10 -8.62,-0.11 -17.25,0.21 -25.86,-0.13 -0.44,-0.18 -1.34,-0.55 -1.79,-0.73 -3.97,-0.59 -8.27,0.77 -12,-0.99 -2.57,-0.15 -5.14,-0.15 -7.7,-0.3 -2.45,-1.36 -5.33,-0.72 -8,-1 -2.14,-1.21 -4.66,-0.79 -6.99,-1.03 -2.3,-1.11 -4.94,-0.6 -7.29,-1.52 -1.69,-0.26 -3.41,-0.4 -5,-1.07 -1.25,-0.17 -2.5,-0.31 -3.74,-0.46 -2.05,-0.64 -4.19,-0.92 -6.25,-1.5 -0.92,-0.18 -1.84,-0.36 -2.76,-0.54 -1.34,-0.4 -2.68,-0.75 -4.03,-1.09 -1.33,-0.35 -2.67,-0.67 -4,-0.99 -1.33,-0.36 -2.67,-0.67 -4.01,-0.96 -1.73,-0.48 -3.46,-0.91 -5.16,-1.43 -0.47,-0.12 -1.39,-0.36 -1.85,-0.48 -1,-0.39 -2.01,-0.77 -3.01,-1.14 -1.7,-0.45 -3.42,-0.84 -5.12,-1.27 -1.01,-0.38 -2.01,-0.77 -3.01,-1.16 -0.46,-0.11 -1.39,-0.34 -1.85,-0.46 -1.05,-0.35 -2.1,-0.69 -3.15,-1.01 -0.98,-0.53 -1.94,-1.06 -2.91,-1.59 -0.48,-0.09 -1.45,-0.28 -1.93,-0.38 -1.05,-0.36 -2.11,-0.71 -3.17,-1.03 -0.97,-0.54 -1.94,-1.08 -2.91,-1.62 -0.51,-0.06 -1.54,-0.16 -2.05,-0.21 -0.97,-0.61 -1.95,-1.22 -2.92,-1.82 -0.51,-0.05 -1.53,-0.15 -2.04,-0.2 -0.51,-0.29 -1.55,-0.88 -2.06,-1.17 -0.96,-0.49 -1.91,-0.97 -2.86,-1.46 -0.51,-0.24 -1.54,-0.72 -2.05,-0.96 -0.51,-0.3 -1.52,-0.89 -2.03,-1.19 -0.5,-0.06 -1.5,-0.17 -2,-0.23 -0.51,-0.29 -1.54,-0.88 -2.05,-1.17 -0.97,-0.47 -1.93,-0.94 -2.9,-1.4 -3.08,-1.54 -5.85,-3.62 -8.99,-5.03 -2.14,-1.01 -4.13,-2.29 -6.13,-3.53 -1.69,-0.96 -3.32,-2.02 -4.95,-3.06 -1.01,-0.69 -2.03,-1.37 -3.06,-2.02 -0.46,-0.34 -1.37,-1.01 -1.83,-1.35 -1.04,-0.64 -2.07,-1.3 -3.09,-1.95 -3.54,-2.35 -6.6,-5.33 -10.11,-7.69 -1.85,-1.59 -3.57,-3.33 -5.24,-5.1 13.33,-33.49 34.82,-63.73 62.36,-87.03 m 28.94,44.96 c -7.55,1.27 -15.14,5.08 -19.16,11.83 -3.03,4.91 -3.02,11.46 0.01,16.36 3.86,6.4 10.95,10.2 18.12,11.61 9.05,1.71 19.03,0.22 26.54,-5.34 4.72,-3.46 8.3,-9 8.03,-15.02 -0.18,-5.85 -3.88,-11.04 -8.56,-14.3 -7.18,-5.03 -16.43,-6.53 -24.98,-5.14 m 4.59,258.52 c -1.99,5.65 -4.01,11.3 -6.06,16.93 1.29,0.01 2.58,0.04 3.87,0.07 0.45,-1.35 0.89,-2.69 1.33,-4.03 2.23,-0.01 4.47,0 6.71,0 0.47,1.33 0.95,2.66 1.42,4 1.33,-0.02 2.66,-0.03 3.99,-0.03 -2.21,-5.65 -4.34,-11.32 -6.49,-16.99 -1.59,0.01 -3.18,0.03 -4.77,0.05 m 13.05,0.01 c 0.01,5.65 0,11.3 0,16.96 0.85,0 2.55,0 3.4,0 0.11,-4.3 0.25,-8.6 0.38,-12.9 0.97,4.3 2.07,8.58 2.99,12.89 0.82,0.01 2.46,0.01 3.28,0.01 0.92,-4.27 1.93,-8.52 2.96,-12.75 0.18,4.25 0.3,8.5 0.41,12.75 0.85,0 2.55,0 3.4,0 0,-5.67 0,-11.34 0,-17 -1.78,0 -3.55,0 -5.32,0.01 -1.03,3.82 -2.1,7.63 -3.1,11.46 -1.01,-3.87 -2.1,-7.73 -3.26,-11.55 -1.72,0.03 -3.43,0.07 -5.14,0.12 m 20.21,-0.02 c 0,5.65 0,11.3 0,16.96 3.97,-0.17 8.1,0.61 11.96,-0.55 3.3,-1.75 2.86,-6.43 -0.09,-8.29 2.39,-2.02 2.44,-6.22 -0.58,-7.69 -3.68,-0.9 -7.54,-0.33 -11.29,-0.43 M 199.1,390 c -0.01,5.66 -0.01,11.33 0,17 1.2,-0.01 2.4,-0.01 3.6,-0.01 0,-5.66 0,-11.32 0,-16.99 -1.2,0 -2.41,0 -3.6,0 m 7.2,0.01 c 0,5.65 0.01,11.31 -0.01,16.97 4.36,0.03 8.73,0.03 13.1,0.01 0,-0.74 0,-2.24 0,-2.98 -3.23,-0.01 -6.46,-0.01 -9.69,-0.02 0,-1.33 0,-2.66 0,-3.98 2.93,-0.01 5.86,-0.01 8.8,-0.01 0.01,-1 0.02,-1.99 0.04,-2.98 -2.95,-0.02 -5.9,-0.03 -8.84,-0.03 0,-1.33 0,-2.66 0,-3.98 3.1,-0.01 6.2,-0.01 9.3,-0.01 0,-0.75 0,-2.25 0,-3 -4.24,-0.01 -8.47,-0.01 -12.7,0.01 m 15.79,-0.02 c 0,5.67 0,11.34 0.01,17.01 1.2,-0.01 2.4,-0.01 3.6,-0.01 0,-3.48 0,-6.97 -0.01,-10.45 2.16,3.49 4.35,6.97 6.54,10.46 1.25,-0.01 2.51,-0.01 3.77,0 0,-5.67 0,-11.33 0,-17 -0.9,0 -2.68,0 -3.58,0 -0.01,3.63 -0.02,7.26 0.06,10.9 -2.13,-3.67 -4.42,-7.23 -6.58,-10.87 -1.27,-0.02 -2.54,-0.03 -3.81,-0.04 M 238,390 c 0,0.75 0,2.25 0,2.99 1.69,0 3.39,0.01 5.09,0.02 0,4.66 0,9.33 0,14 1.17,-0.02 2.33,-0.03 3.5,-0.03 -0.02,-4.66 -0.01,-9.31 -0.01,-13.97 1.71,-0.02 3.42,-0.02 5.13,-0.03 0,-0.74 0,-2.22 0,-2.97 -4.57,-0.02 -9.14,-0.02 -13.71,-0.01 m 21,0.02 c 1.46,5.64 2.59,11.36 4.12,16.98 1.25,0 2.51,0.01 3.77,0.02 1.21,-4.14 2.35,-8.29 3.4,-12.47 1.24,4.16 2.43,8.33 3.7,12.48 1.17,-0.02 2.35,-0.04 3.52,-0.05 1.47,-5.64 2.81,-11.31 4.15,-16.98 -0.9,0 -2.69,-0.01 -3.59,-0.01 -0.9,3.82 -1.71,7.66 -2.59,11.49 -1.06,-3.82 -2.1,-7.64 -3.06,-11.48 -1.38,0.02 -2.76,0.03 -4.14,0.05 -1.02,3.8 -2.07,7.59 -3.11,11.39 -0.76,-3.83 -1.57,-7.65 -2.44,-11.45 -1.25,0.01 -2.49,0.02 -3.73,0.03 m 24.3,-0.01 c 0,5.66 0,11.32 0,16.98 4.36,0.01 8.72,0.01 13.09,0 0,-0.74 0,-2.24 0,-2.98 -3.23,-0.01 -6.46,-0.01 -9.69,-0.02 0,-1.33 0,-2.66 0,-3.98 2.94,-0.01 5.89,-0.02 8.83,-0.03 0,-0.74 0,-2.22 0,-2.96 -2.94,-0.02 -5.89,-0.03 -8.83,-0.03 0,-1.33 0,-2.66 0,-3.98 3.1,-0.01 6.2,-0.01 9.3,-0.01 0,-0.75 0,-2.25 0,-3 -4.24,-0.01 -8.47,-0.01 -12.7,0.01 m 14.17,17 c 1.3,-0.01 2.6,-0.03 3.91,-0.03 0.47,-1.35 0.95,-2.68 1.44,-4.01 2.13,0 4.26,0 6.4,-0.01 0.53,1.35 1.07,2.69 1.6,4.05 1.32,-0.01 2.63,-0.02 3.95,-0.02 -2.09,-5.67 -4.38,-11.27 -6.38,-16.97 -1.6,-0.02 -3.19,-0.03 -4.78,-0.04 -2.1,5.66 -4.06,11.37 -6.14,17.03 m 15.93,-16.99 c 0,0.74 0,2.22 0.01,2.96 1.68,0.01 3.37,0.01 5.07,0.03 0,4.66 0,9.31 -0.01,13.97 1.17,0 2.35,0.01 3.53,0.03 0,-4.67 0,-9.34 0,-14 1.74,-0.01 3.47,-0.02 5.22,-0.02 0,-0.74 0,-2.24 0,-2.98 -4.61,-0.02 -9.21,-0.02 -13.82,0.01 M 329.61,390 c 0,5.67 0,11.33 0,17 0.95,0 2.83,0 3.78,0 -0.01,-2.34 -0.01,-4.67 -0.01,-6.99 2.2,-0.01 4.41,-0.01 6.62,-0.01 -0.01,2.33 0,4.67 0,7.01 1.19,-0.02 2.39,-0.02 3.59,-0.02 -0.01,-5.66 -0.02,-11.31 0.01,-16.96 -1.21,-0.02 -2.41,-0.03 -3.6,-0.04 0,2.33 -0.01,4.67 0,7.02 -2.21,-0.02 -4.42,-0.02 -6.63,-0.03 0.01,-2.33 0.01,-4.66 0.02,-6.98 -0.94,0 -2.83,0 -3.78,0 m 17.17,0.01 c 0,5.66 0,11.32 0,16.98 4.35,0.01 8.69,0.01 13.04,0 0,-0.75 -0.01,-2.24 -0.01,-2.98 -3.2,-0.01 -6.4,-0.02 -9.6,-0.02 0,-1.33 0,-2.66 0,-3.98 2.9,-0.01 5.8,-0.01 8.7,-0.02 0,-0.74 0,-2.23 0,-2.98 -2.9,-0.01 -5.8,-0.02 -8.7,-0.02 0,-1.33 0,-2.66 0,-3.98 3.12,-0.01 6.24,-0.02 9.36,-0.02 0.02,-0.73 0.06,-2.2 0.08,-2.93 -4.29,-0.08 -8.58,-0.08 -12.87,-0.05 m 16,0.01 c 0,5.65 0,11.31 0,16.98 0.9,0 2.7,0 3.6,0 0,-2.44 0,-4.88 0.04,-7.31 3.97,0.38 5.41,4.53 7.51,7.32 1.44,-0.02 2.89,-0.03 4.35,-0.04 -1.51,-2.53 -3.18,-4.96 -5.11,-7.18 1.39,-1.09 3.55,-1.88 3.62,-3.95 0.58,-2.46 -0.96,-5.61 -3.72,-5.68 -3.42,-0.36 -6.86,-0.14 -10.29,-0.14 z"
       id="path4226"
       inkscape:connector-curvature="0" />
    <path
       style="opacity:1;fill:#8585ad;stroke:#8585ad;stroke-width:0.09375"
       d="m 144.45,131.51 c 8.55,-1.39 17.8,0.11 24.98,5.14 4.68,3.26 8.38,8.45 8.56,14.3 0.27,6.02 -3.31,11.56 -8.03,15.02 -7.51,5.56 -17.49,7.05 -26.54,5.34 -7.17,-1.41 -14.26,-5.21 -18.12,-11.61 -3.03,-4.9 -3.04,-11.45 -0.01,-16.36 4.02,-6.75 11.61,-10.56 19.16,-11.83 z"
       id="path4228"
       inkscape:connector-curvature="0" />
    <path
       style="opacity:1;fill:#9999ac;stroke:#9999ac;stroke-width:0.09375"
       d="m 149.04,390.03 c 1.59,-0.02 3.18,-0.04 4.77,-0.05 2.15,5.67 4.28,11.34 6.49,16.99 -1.33,0 -2.66,0.01 -3.99,0.03 -0.47,-1.34 -0.95,-2.67 -1.42,-4 -2.24,0 -4.48,-0.01 -6.71,0 -0.44,1.34 -0.88,2.68 -1.33,4.03 -1.29,-0.03 -2.58,-0.06 -3.87,-0.07 2.05,-5.63 4.07,-11.28 6.06,-16.93 m 0.13,9.93 c 1.57,0.01 3.13,0.02 4.7,0.04 -0.81,-2.29 -1.6,-4.58 -2.38,-6.86 -0.78,2.27 -1.55,4.54 -2.32,6.82 z"
       id="path4230"
       inkscape:connector-curvature="0" />
    <path
       style="opacity:1;fill:#9999ac;stroke:#9999ac;stroke-width:0.09375"
       d="m 162.09,390.04 c 1.71,-0.05 3.42,-0.09 5.14,-0.12 1.16,3.82 2.25,7.68 3.26,11.55 1,-3.83 2.07,-7.64 3.1,-11.46 1.77,-0.01 3.54,-0.01 5.32,-0.01 0,5.66 0,11.33 0,17 -0.85,0 -2.55,0 -3.4,0 -0.11,-4.25 -0.23,-8.5 -0.41,-12.75 -1.03,4.23 -2.04,8.48 -2.96,12.75 -0.82,0 -2.46,0 -3.28,-0.01 -0.92,-4.31 -2.02,-8.59 -2.99,-12.89 -0.13,4.3 -0.27,8.6 -0.38,12.9 -0.85,0 -2.55,0 -3.4,0 0,-5.66 0.01,-11.31 0,-16.96 z"
       id="path4232"
       inkscape:connector-curvature="0" />
    <path
       style="opacity:1;fill:#9999ac;stroke:#9999ac;stroke-width:0.09375"
       d="m 182.3,390.02 c 3.75,0.1 7.61,-0.47 11.29,0.43 3.02,1.47 2.97,5.67 0.58,7.69 2.95,1.86 3.39,6.54 0.09,8.29 -3.86,1.16 -7.99,0.38 -11.96,0.55 0,-5.66 0,-11.31 0,-16.96 m 3.4,2.91 c 0,1.38 0,2.75 0,4.14 2.23,-0.22 4.82,0.47 6.7,-1.08 1.04,-3.98 -4.36,-2.81 -6.7,-3.06 m 0,7 c 0,1.37 0,2.75 0,4.13 2.03,-0.12 4.15,0.18 6.12,-0.43 1.54,-0.44 1.29,-2.88 -0.15,-3.26 -1.92,-0.61 -3.99,-0.32 -5.97,-0.44 z"
       id="path4234"
       inkscape:connector-curvature="0" />
    <path
       style="opacity:1;fill:#9999ac;stroke:#9999ac;stroke-width:0.09375"
       d="m 199.1,390 c 1.19,0 2.4,0 3.6,0 0,5.67 0,11.33 0,16.99 -1.2,0 -2.4,0 -3.6,0.01 -0.01,-5.67 -0.01,-11.34 0,-17 z"
       id="path4236"
       inkscape:connector-curvature="0" />
    <path
       style="opacity:1;fill:#9999ac;stroke:#9999ac;stroke-width:0.09375"
       d="m 206.3,390.01 c 4.23,-0.02 8.46,-0.02 12.7,-0.01 0,0.75 0,2.25 0,3 -3.1,0 -6.2,0 -9.3,0.01 0,1.32 0,2.65 0,3.98 2.94,0 5.89,0.01 8.84,0.03 -0.02,0.99 -0.03,1.98 -0.04,2.98 -2.94,0 -5.87,0 -8.8,0.01 0,1.32 0,2.65 0,3.98 3.23,0.01 6.46,0.01 9.69,0.02 0,0.74 0,2.24 0,2.98 -4.37,0.02 -8.74,0.02 -13.1,-0.01 0.02,-5.66 0.01,-11.32 0.01,-16.97 z"
       id="path4238"
       inkscape:connector-curvature="0" />
    <path
       style="opacity:1;fill:#9999ac;stroke:#9999ac;stroke-width:0.09375"
       d="m 222.09,389.99 c 1.27,0.01 2.54,0.02 3.81,0.04 2.16,3.64 4.45,7.2 6.58,10.87 -0.08,-3.64 -0.07,-7.27 -0.06,-10.9 0.9,0 2.68,0 3.58,0 0,5.67 0,11.33 0,17 -1.26,-0.01 -2.52,-0.01 -3.77,0 -2.19,-3.49 -4.38,-6.97 -6.54,-10.46 0.01,3.48 0.01,6.97 0.01,10.45 -1.2,0 -2.4,0 -3.6,0.01 -0.01,-5.67 -0.01,-11.34 -0.01,-17.01 z"
       id="path4240"
       inkscape:connector-curvature="0" />
    <path
       style="opacity:1;fill:#9999ac;stroke:#9999ac;stroke-width:0.09375"
       d="m 238,390 c 4.57,-0.01 9.14,-0.01 13.71,0.01 0,0.75 0,2.23 0,2.97 -1.71,0.01 -3.42,0.01 -5.13,0.03 0,4.66 -0.01,9.31 0.01,13.97 -1.17,0 -2.33,0.01 -3.5,0.03 0,-4.67 0,-9.34 0,-14 -1.7,-0.01 -3.4,-0.02 -5.09,-0.02 0,-0.74 0,-2.24 0,-2.99 z"
       id="path4242"
       inkscape:connector-curvature="0" />
    <path
       style="opacity:1;fill:#9999ac;stroke:#9999ac;stroke-width:0.09375"
       d="m 259,390.02 c 1.24,-0.01 2.48,-0.02 3.73,-0.03 0.87,3.8 1.68,7.62 2.44,11.45 1.04,-3.8 2.09,-7.59 3.11,-11.39 1.38,-0.02 2.76,-0.03 4.14,-0.05 0.96,3.84 2,7.66 3.06,11.48 0.88,-3.83 1.69,-7.67 2.59,-11.49 0.9,0 2.69,0.01 3.59,0.01 -1.34,5.67 -2.68,11.34 -4.15,16.98 -1.17,0.01 -2.35,0.03 -3.52,0.05 -1.27,-4.15 -2.46,-8.32 -3.7,-12.48 -1.05,4.18 -2.19,8.33 -3.4,12.47 -1.26,-0.01 -2.52,-0.02 -3.77,-0.02 -1.53,-5.62 -2.66,-11.34 -4.12,-16.98 z"
       id="path4244"
       inkscape:connector-curvature="0" />
    <path
       style="opacity:1;fill:#9999ac;stroke:#9999ac;stroke-width:0.09375"
       d="m 283.3,390.01 c 4.23,-0.02 8.46,-0.02 12.7,-0.01 0,0.75 0,2.25 0,3 -3.1,0 -6.2,0 -9.3,0.01 0,1.32 0,2.65 0,3.98 2.94,0 5.89,0.01 8.83,0.03 0,0.74 0,2.22 0,2.96 -2.94,0.01 -5.89,0.02 -8.83,0.03 0,1.32 0,2.65 0,3.98 3.23,0.01 6.46,0.01 9.69,0.02 0,0.74 0,2.24 0,2.98 -4.37,0.01 -8.73,0.01 -13.09,0 0,-5.66 0,-11.32 0,-16.98 z"
       id="path4246"
       inkscape:connector-curvature="0" />
    <path
       style="opacity:1;fill:#9999ac;stroke:#9999ac;stroke-width:0.09375"
       d="m 297.47,407.01 c 2.08,-5.66 4.04,-11.37 6.14,-17.03 1.59,0.01 3.18,0.02 4.78,0.04 2,5.7 4.29,11.3 6.38,16.97 -1.32,0 -2.63,0.01 -3.95,0.02 -0.53,-1.36 -1.07,-2.7 -1.6,-4.05 -2.14,0.01 -4.27,0.01 -6.4,0.01 -0.49,1.33 -0.97,2.66 -1.44,4.01 -1.31,0 -2.61,0.02 -3.91,0.03 m 6.19,-7.01 c 1.57,-0.01 3.15,-0.01 4.73,0 -0.84,-2.3 -1.65,-4.61 -2.44,-6.92 -0.75,2.31 -1.51,4.61 -2.29,6.92 z"
       id="path4248"
       inkscape:connector-curvature="0" />
    <path
       style="opacity:1;fill:#9999ac;stroke:#9999ac;stroke-width:0.09375"
       d="m 313.4,390.02 c 4.61,-0.03 9.21,-0.03 13.82,-0.01 0,0.74 0,2.24 0,2.98 -1.75,0 -3.48,0.01 -5.22,0.02 0,4.66 0,9.33 0,14 -1.18,-0.02 -2.36,-0.03 -3.53,-0.03 0.01,-4.66 0.01,-9.31 0.01,-13.97 -1.7,-0.02 -3.39,-0.02 -5.07,-0.03 -0.01,-0.74 -0.01,-2.22 -0.01,-2.96 z"
       id="path4250"
       inkscape:connector-curvature="0" />
    <path
       style="opacity:1;fill:#9999ac;stroke:#9999ac;stroke-width:0.09375"
       d="m 329.61,390 c 0.95,0 2.84,0 3.78,0 -0.01,2.32 -0.01,4.65 -0.02,6.98 2.21,0.01 4.42,0.01 6.63,0.03 -0.01,-2.35 0,-4.69 0,-7.02 1.19,0.01 2.39,0.02 3.6,0.04 -0.03,5.65 -0.02,11.3 -0.01,16.96 -1.2,0 -2.4,0 -3.59,0.02 0,-2.34 -0.01,-4.68 0,-7.01 -2.21,0 -4.42,0 -6.62,0.01 0,2.32 0,4.65 0.01,6.99 -0.95,0 -2.83,0 -3.78,0 0,-5.67 0,-11.33 0,-17 z"
       id="path4252"
       inkscape:connector-curvature="0" />
    <path
       style="opacity:1;fill:#9999ac;stroke:#9999ac;stroke-width:0.09375"
       d="m 346.78,390.01 c 4.29,-0.03 8.58,-0.03 12.87,0.05 -0.02,0.73 -0.06,2.2 -0.08,2.93 -3.12,0 -6.24,0.01 -9.36,0.02 0,1.32 0,2.65 0,3.98 2.9,0 5.8,0.01 8.7,0.02 0,0.75 0,2.24 0,2.98 -2.9,0.01 -5.8,0.01 -8.7,0.02 0,1.32 0,2.65 0,3.98 3.2,0 6.4,0.01 9.6,0.02 0,0.74 0.01,2.23 0.01,2.98 -4.35,0.01 -8.69,0.01 -13.04,0 0,-5.66 0,-11.32 0,-16.98 z"
       id="path4254"
       inkscape:connector-curvature="0" />
    <path
       style="opacity:1;fill:#9999ac;stroke:#9999ac;stroke-width:0.09375"
       d="m 362.78,390.02 c 3.43,0 6.87,-0.22 10.29,0.14 2.76,0.07 4.3,3.22 3.72,5.68 -0.07,2.07 -2.23,2.86 -3.62,3.95 1.93,2.22 3.6,4.65 5.11,7.18 -1.46,0.01 -2.91,0.02 -4.35,0.04 -2.1,-2.79 -3.54,-6.94 -7.51,-7.32 -0.04,2.43 -0.04,4.87 -0.04,7.31 -0.9,0 -2.7,0 -3.6,0 0,-5.67 0,-11.33 0,-16.98 m 3.6,3 c -0.01,1.32 -0.01,2.63 -0.01,3.96 1.83,0.01 3.66,0.01 5.49,0.04 0.42,-0.5 1.25,-1.5 1.66,-1.99 -0.38,-0.52 -1.14,-1.54 -1.52,-2.06 -1.88,0.02 -3.75,0.03 -5.62,0.05 z"
       id="path4256"
       inkscape:connector-curvature="0" />
    <path
       style="opacity:1;fill:#080855;stroke:#080855;stroke-width:0.09375"
       d="m 185.7,392.93 c 2.34,0.25 7.74,-0.92 6.7,3.06 -1.88,1.55 -4.47,0.86 -6.7,1.08 0,-1.39 0,-2.76 0,-4.14 z"
       id="path4258"
       inkscape:connector-curvature="0" />
    <path
       style="opacity:1;fill:#080855;stroke:#080855;stroke-width:0.09375"
       d="m 366.38,393.02 c 1.87,-0.02 3.74,-0.03 5.62,-0.05 0.38,0.52 1.14,1.54 1.52,2.06 -0.41,0.49 -1.24,1.49 -1.66,1.99 -1.83,-0.03 -3.66,-0.03 -5.49,-0.04 0,-1.33 0,-2.64 0.01,-3.96 z"
       id="path4260"
       inkscape:connector-curvature="0" />
    <path
       style="opacity:1;fill:#080855;stroke:#080855;stroke-width:0.09375"
       d="m 149.17,399.96 c 0.77,-2.28 1.54,-4.55 2.32,-6.82 0.78,2.28 1.57,4.57 2.38,6.86 -1.57,-0.02 -3.13,-0.03 -4.7,-0.04 z"
       id="path4262"
       inkscape:connector-curvature="0" />
    <path
       style="opacity:1;fill:#080855;stroke:#080855;stroke-width:0.09375"
       d="m 303.66,400 c 0.78,-2.31 1.54,-4.61 2.29,-6.92 0.79,2.31 1.6,4.62 2.44,6.92 -1.58,-0.01 -3.16,-0.01 -4.73,0 z"
       id="path4264"
       inkscape:connector-curvature="0" />
    <path
       style="opacity:1;fill:#080855;stroke:#080855;stroke-width:0.09375"
       d="m 185.7,399.93 c 1.98,0.12 4.05,-0.17 5.97,0.44 1.44,0.38 1.69,2.82 0.15,3.26 -1.97,0.61 -4.09,0.31 -6.12,0.43 0,-1.38 0,-2.76 0,-4.13 z"
       id="path4266"
       inkscape:connector-curvature="0" />
  </g>
</svg>
